<mxfile host="app.diagrams.net" agent="Mozilla/5.0 (Windows NT 10.0; Win64; x64) AppleWebKit/537.36 (KHTML, like Gecko) Chrome/132.0.0.0 Safari/537.36" version="24.9.2">
  <diagram name="Página-1" id="wCbrX3jwMjH9cxKufqJQ">
    <mxGraphModel dx="1235" dy="655" grid="1" gridSize="10" guides="1" tooltips="1" connect="1" arrows="1" fold="1" page="1" pageScale="1" pageWidth="827" pageHeight="1169" math="0" shadow="0">
      <root>
        <mxCell id="0" />
        <mxCell id="1" parent="0" />
        <mxCell id="oJKKy8mv0hVQBHLqiD-X-1" value="Admin" style="shape=umlActor;verticalLabelPosition=bottom;verticalAlign=top;html=1;outlineConnect=0;" vertex="1" parent="1">
          <mxGeometry x="50" y="390" width="30" height="60" as="geometry" />
        </mxCell>
        <mxCell id="oJKKy8mv0hVQBHLqiD-X-3" value="Publicar coches" style="ellipse;whiteSpace=wrap;html=1;" vertex="1" parent="1">
          <mxGeometry x="150" y="170" width="100" height="40" as="geometry" />
        </mxCell>
        <mxCell id="oJKKy8mv0hVQBHLqiD-X-4" value="Editar coches" style="ellipse;whiteSpace=wrap;html=1;" vertex="1" parent="1">
          <mxGeometry x="150" y="230" width="100" height="40" as="geometry" />
        </mxCell>
        <mxCell id="oJKKy8mv0hVQBHLqiD-X-5" value="Eliminar coches" style="ellipse;whiteSpace=wrap;html=1;" vertex="1" parent="1">
          <mxGeometry x="150" y="300" width="100" height="40" as="geometry" />
        </mxCell>
        <mxCell id="oJKKy8mv0hVQBHLqiD-X-6" value="Gestionar reservas" style="ellipse;whiteSpace=wrap;html=1;" vertex="1" parent="1">
          <mxGeometry x="150" y="360" width="100" height="40" as="geometry" />
        </mxCell>
        <mxCell id="oJKKy8mv0hVQBHLqiD-X-7" value="Responder consultas cliente" style="ellipse;whiteSpace=wrap;html=1;" vertex="1" parent="1">
          <mxGeometry x="135" y="420" width="130" height="60" as="geometry" />
        </mxCell>
        <mxCell id="oJKKy8mv0hVQBHLqiD-X-8" value="Gestionar valoraciones" style="ellipse;whiteSpace=wrap;html=1;" vertex="1" parent="1">
          <mxGeometry x="135" y="500" width="130" height="60" as="geometry" />
        </mxCell>
        <mxCell id="oJKKy8mv0hVQBHLqiD-X-9" value="Administrar contenido de la web" style="ellipse;whiteSpace=wrap;html=1;" vertex="1" parent="1">
          <mxGeometry x="135" y="584.5" width="130" height="60" as="geometry" />
        </mxCell>
        <mxCell id="oJKKy8mv0hVQBHLqiD-X-10" value="" style="endArrow=classic;html=1;rounded=0;entryX=0;entryY=0.5;entryDx=0;entryDy=0;exitX=0.5;exitY=0;exitDx=0;exitDy=0;exitPerimeter=0;" edge="1" parent="1" source="oJKKy8mv0hVQBHLqiD-X-1" target="oJKKy8mv0hVQBHLqiD-X-3">
          <mxGeometry width="50" height="50" relative="1" as="geometry">
            <mxPoint x="80" y="320" as="sourcePoint" />
            <mxPoint x="130" y="270" as="targetPoint" />
          </mxGeometry>
        </mxCell>
        <mxCell id="oJKKy8mv0hVQBHLqiD-X-11" value="" style="endArrow=classic;html=1;rounded=0;exitX=0.75;exitY=0.1;exitDx=0;exitDy=0;exitPerimeter=0;entryX=0;entryY=0.5;entryDx=0;entryDy=0;" edge="1" parent="1" source="oJKKy8mv0hVQBHLqiD-X-1" target="oJKKy8mv0hVQBHLqiD-X-4">
          <mxGeometry width="50" height="50" relative="1" as="geometry">
            <mxPoint x="100" y="410" as="sourcePoint" />
            <mxPoint x="150" y="360" as="targetPoint" />
          </mxGeometry>
        </mxCell>
        <mxCell id="oJKKy8mv0hVQBHLqiD-X-12" value="" style="endArrow=classic;html=1;rounded=0;entryX=0;entryY=0.5;entryDx=0;entryDy=0;exitX=0.75;exitY=0.1;exitDx=0;exitDy=0;exitPerimeter=0;" edge="1" parent="1" source="oJKKy8mv0hVQBHLqiD-X-1" target="oJKKy8mv0hVQBHLqiD-X-5">
          <mxGeometry width="50" height="50" relative="1" as="geometry">
            <mxPoint x="110" y="490" as="sourcePoint" />
            <mxPoint x="160" y="440" as="targetPoint" />
          </mxGeometry>
        </mxCell>
        <mxCell id="oJKKy8mv0hVQBHLqiD-X-13" value="" style="endArrow=classic;html=1;rounded=0;exitX=0.75;exitY=0.1;exitDx=0;exitDy=0;exitPerimeter=0;" edge="1" parent="1" source="oJKKy8mv0hVQBHLqiD-X-1" target="oJKKy8mv0hVQBHLqiD-X-6">
          <mxGeometry width="50" height="50" relative="1" as="geometry">
            <mxPoint x="100" y="510" as="sourcePoint" />
            <mxPoint x="150" y="460" as="targetPoint" />
          </mxGeometry>
        </mxCell>
        <mxCell id="oJKKy8mv0hVQBHLqiD-X-14" value="" style="endArrow=classic;html=1;rounded=0;exitX=0.75;exitY=0.1;exitDx=0;exitDy=0;exitPerimeter=0;entryX=0;entryY=0.5;entryDx=0;entryDy=0;" edge="1" parent="1" source="oJKKy8mv0hVQBHLqiD-X-1" target="oJKKy8mv0hVQBHLqiD-X-7">
          <mxGeometry width="50" height="50" relative="1" as="geometry">
            <mxPoint x="90" y="620" as="sourcePoint" />
            <mxPoint x="140" y="570" as="targetPoint" />
          </mxGeometry>
        </mxCell>
        <mxCell id="oJKKy8mv0hVQBHLqiD-X-15" value="" style="endArrow=classic;html=1;rounded=0;exitX=0.75;exitY=0.1;exitDx=0;exitDy=0;exitPerimeter=0;entryX=0;entryY=0;entryDx=0;entryDy=0;" edge="1" parent="1" source="oJKKy8mv0hVQBHLqiD-X-1" target="oJKKy8mv0hVQBHLqiD-X-8">
          <mxGeometry width="50" height="50" relative="1" as="geometry">
            <mxPoint x="80" y="580" as="sourcePoint" />
            <mxPoint x="130" y="530" as="targetPoint" />
          </mxGeometry>
        </mxCell>
        <mxCell id="oJKKy8mv0hVQBHLqiD-X-16" value="" style="endArrow=classic;html=1;rounded=0;entryX=0;entryY=0;entryDx=0;entryDy=0;" edge="1" parent="1" target="oJKKy8mv0hVQBHLqiD-X-9">
          <mxGeometry width="50" height="50" relative="1" as="geometry">
            <mxPoint x="100" y="480" as="sourcePoint" />
            <mxPoint x="140" y="550" as="targetPoint" />
          </mxGeometry>
        </mxCell>
        <mxCell id="oJKKy8mv0hVQBHLqiD-X-17" value="Sistema" style="shape=umlActor;verticalLabelPosition=bottom;verticalAlign=top;html=1;outlineConnect=0;" vertex="1" parent="1">
          <mxGeometry x="390" y="390" width="30" height="60" as="geometry" />
        </mxCell>
        <mxCell id="oJKKy8mv0hVQBHLqiD-X-18" value="Cliente" style="shape=umlActor;verticalLabelPosition=bottom;verticalAlign=top;html=1;outlineConnect=0;" vertex="1" parent="1">
          <mxGeometry x="750" y="390" width="30" height="60" as="geometry" />
        </mxCell>
        <mxCell id="oJKKy8mv0hVQBHLqiD-X-20" value="Buscar coches" style="ellipse;whiteSpace=wrap;html=1;" vertex="1" parent="1">
          <mxGeometry x="560" y="120" width="100" height="40" as="geometry" />
        </mxCell>
        <mxCell id="oJKKy8mv0hVQBHLqiD-X-21" value="Filtrar coches" style="ellipse;whiteSpace=wrap;html=1;" vertex="1" parent="1">
          <mxGeometry x="555" y="180" width="110" height="50" as="geometry" />
        </mxCell>
        <mxCell id="oJKKy8mv0hVQBHLqiD-X-22" value="Ver detalles de un coche" style="ellipse;whiteSpace=wrap;html=1;" vertex="1" parent="1">
          <mxGeometry x="540" y="240" width="140" height="60" as="geometry" />
        </mxCell>
        <mxCell id="oJKKy8mv0hVQBHLqiD-X-23" value="Reservar un coche online" style="ellipse;whiteSpace=wrap;html=1;" vertex="1" parent="1">
          <mxGeometry x="530" y="320" width="160" height="70" as="geometry" />
        </mxCell>
        <mxCell id="oJKKy8mv0hVQBHLqiD-X-24" value="Contactar con el vendedor" style="ellipse;whiteSpace=wrap;html=1;" vertex="1" parent="1">
          <mxGeometry x="535" y="420" width="150" height="60" as="geometry" />
        </mxCell>
        <mxCell id="oJKKy8mv0hVQBHLqiD-X-25" value="Leer opiniones de otros clientes" style="ellipse;whiteSpace=wrap;html=1;" vertex="1" parent="1">
          <mxGeometry x="535" y="505" width="150" height="55" as="geometry" />
        </mxCell>
        <mxCell id="oJKKy8mv0hVQBHLqiD-X-26" value="Comparar vehiculos" style="ellipse;whiteSpace=wrap;html=1;" vertex="1" parent="1">
          <mxGeometry x="555" y="585" width="110" height="40" as="geometry" />
        </mxCell>
        <mxCell id="oJKKy8mv0hVQBHLqiD-X-27" value="Calcular financiación" style="ellipse;whiteSpace=wrap;html=1;" vertex="1" parent="1">
          <mxGeometry x="540" y="660" width="140" height="50" as="geometry" />
        </mxCell>
        <mxCell id="oJKKy8mv0hVQBHLqiD-X-28" value="Explorar servicios adicionales" style="ellipse;whiteSpace=wrap;html=1;" vertex="1" parent="1">
          <mxGeometry x="545" y="730" width="140" height="50" as="geometry" />
        </mxCell>
        <mxCell id="oJKKy8mv0hVQBHLqiD-X-29" value="Ver ubicación y horario de la tienda" style="ellipse;whiteSpace=wrap;html=1;" vertex="1" parent="1">
          <mxGeometry x="550" y="810" width="120" height="60" as="geometry" />
        </mxCell>
        <mxCell id="oJKKy8mv0hVQBHLqiD-X-30" value="" style="endArrow=classic;html=1;rounded=0;entryX=1;entryY=0.5;entryDx=0;entryDy=0;exitX=0.5;exitY=0;exitDx=0;exitDy=0;exitPerimeter=0;" edge="1" parent="1" source="oJKKy8mv0hVQBHLqiD-X-18" target="oJKKy8mv0hVQBHLqiD-X-20">
          <mxGeometry width="50" height="50" relative="1" as="geometry">
            <mxPoint x="700" y="180" as="sourcePoint" />
            <mxPoint x="750" y="130" as="targetPoint" />
          </mxGeometry>
        </mxCell>
        <mxCell id="oJKKy8mv0hVQBHLqiD-X-31" value="" style="endArrow=classic;html=1;rounded=0;entryX=1;entryY=0.5;entryDx=0;entryDy=0;exitX=0.25;exitY=0.1;exitDx=0;exitDy=0;exitPerimeter=0;" edge="1" parent="1" source="oJKKy8mv0hVQBHLqiD-X-18" target="oJKKy8mv0hVQBHLqiD-X-21">
          <mxGeometry width="50" height="50" relative="1" as="geometry">
            <mxPoint x="775" y="400" as="sourcePoint" />
            <mxPoint x="670" y="150" as="targetPoint" />
          </mxGeometry>
        </mxCell>
        <mxCell id="oJKKy8mv0hVQBHLqiD-X-32" value="" style="endArrow=classic;html=1;rounded=0;entryX=1;entryY=1;entryDx=0;entryDy=0;exitX=0.333;exitY=0.167;exitDx=0;exitDy=0;exitPerimeter=0;" edge="1" parent="1" source="oJKKy8mv0hVQBHLqiD-X-18" target="oJKKy8mv0hVQBHLqiD-X-22">
          <mxGeometry width="50" height="50" relative="1" as="geometry">
            <mxPoint x="785" y="410" as="sourcePoint" />
            <mxPoint x="680" y="160" as="targetPoint" />
          </mxGeometry>
        </mxCell>
        <mxCell id="oJKKy8mv0hVQBHLqiD-X-33" value="" style="endArrow=classic;html=1;rounded=0;entryX=0.945;entryY=0.693;entryDx=0;entryDy=0;exitX=0.25;exitY=0.1;exitDx=0;exitDy=0;exitPerimeter=0;entryPerimeter=0;" edge="1" parent="1" source="oJKKy8mv0hVQBHLqiD-X-18" target="oJKKy8mv0hVQBHLqiD-X-23">
          <mxGeometry width="50" height="50" relative="1" as="geometry">
            <mxPoint x="795" y="420" as="sourcePoint" />
            <mxPoint x="690" y="170" as="targetPoint" />
          </mxGeometry>
        </mxCell>
        <mxCell id="oJKKy8mv0hVQBHLqiD-X-34" value="" style="endArrow=classic;html=1;rounded=0;entryX=1;entryY=0.5;entryDx=0;entryDy=0;" edge="1" parent="1" target="oJKKy8mv0hVQBHLqiD-X-24">
          <mxGeometry width="50" height="50" relative="1" as="geometry">
            <mxPoint x="760" y="400" as="sourcePoint" />
            <mxPoint x="700" y="180" as="targetPoint" />
          </mxGeometry>
        </mxCell>
        <mxCell id="oJKKy8mv0hVQBHLqiD-X-35" value="" style="endArrow=classic;html=1;rounded=0;entryX=1;entryY=0.5;entryDx=0;entryDy=0;" edge="1" parent="1" target="oJKKy8mv0hVQBHLqiD-X-25">
          <mxGeometry width="50" height="50" relative="1" as="geometry">
            <mxPoint x="760" y="400" as="sourcePoint" />
            <mxPoint x="710" y="190" as="targetPoint" />
          </mxGeometry>
        </mxCell>
        <mxCell id="oJKKy8mv0hVQBHLqiD-X-36" value="" style="endArrow=classic;html=1;rounded=0;entryX=0.925;entryY=0.282;entryDx=0;entryDy=0;entryPerimeter=0;" edge="1" parent="1" target="oJKKy8mv0hVQBHLqiD-X-26">
          <mxGeometry width="50" height="50" relative="1" as="geometry">
            <mxPoint x="740" y="480" as="sourcePoint" />
            <mxPoint x="720" y="200" as="targetPoint" />
          </mxGeometry>
        </mxCell>
        <mxCell id="oJKKy8mv0hVQBHLqiD-X-37" value="" style="endArrow=classic;html=1;rounded=0;entryX=1;entryY=0;entryDx=0;entryDy=0;" edge="1" parent="1" target="oJKKy8mv0hVQBHLqiD-X-27">
          <mxGeometry width="50" height="50" relative="1" as="geometry">
            <mxPoint x="750" y="490" as="sourcePoint" />
            <mxPoint x="730" y="210" as="targetPoint" />
          </mxGeometry>
        </mxCell>
        <mxCell id="oJKKy8mv0hVQBHLqiD-X-38" value="" style="endArrow=classic;html=1;rounded=0;entryX=1;entryY=0;entryDx=0;entryDy=0;" edge="1" parent="1" target="oJKKy8mv0hVQBHLqiD-X-28">
          <mxGeometry width="50" height="50" relative="1" as="geometry">
            <mxPoint x="760" y="490" as="sourcePoint" />
            <mxPoint x="740" y="220" as="targetPoint" />
          </mxGeometry>
        </mxCell>
        <mxCell id="oJKKy8mv0hVQBHLqiD-X-39" value="" style="endArrow=classic;html=1;rounded=0;entryX=1;entryY=0.5;entryDx=0;entryDy=0;" edge="1" parent="1" target="oJKKy8mv0hVQBHLqiD-X-29">
          <mxGeometry width="50" height="50" relative="1" as="geometry">
            <mxPoint x="770" y="500" as="sourcePoint" />
            <mxPoint x="710" y="770" as="targetPoint" />
          </mxGeometry>
        </mxCell>
        <mxCell id="oJKKy8mv0hVQBHLqiD-X-40" value="" style="endArrow=classic;html=1;rounded=0;entryX=0.5;entryY=0;entryDx=0;entryDy=0;exitX=1;exitY=0.5;exitDx=0;exitDy=0;entryPerimeter=0;" edge="1" parent="1" source="oJKKy8mv0hVQBHLqiD-X-3" target="oJKKy8mv0hVQBHLqiD-X-17">
          <mxGeometry width="50" height="50" relative="1" as="geometry">
            <mxPoint x="865" y="490" as="sourcePoint" />
            <mxPoint x="760" y="240" as="targetPoint" />
          </mxGeometry>
        </mxCell>
        <mxCell id="oJKKy8mv0hVQBHLqiD-X-41" value="" style="endArrow=classic;html=1;rounded=0;entryX=0.5;entryY=0;entryDx=0;entryDy=0;exitX=0;exitY=0.5;exitDx=0;exitDy=0;entryPerimeter=0;" edge="1" parent="1" source="oJKKy8mv0hVQBHLqiD-X-20" target="oJKKy8mv0hVQBHLqiD-X-17">
          <mxGeometry width="50" height="50" relative="1" as="geometry">
            <mxPoint x="875" y="500" as="sourcePoint" />
            <mxPoint x="770" y="250" as="targetPoint" />
          </mxGeometry>
        </mxCell>
        <mxCell id="oJKKy8mv0hVQBHLqiD-X-42" value="" style="endArrow=classic;html=1;rounded=0;entryX=0.75;entryY=0.1;entryDx=0;entryDy=0;exitX=0;exitY=0.5;exitDx=0;exitDy=0;entryPerimeter=0;" edge="1" parent="1" source="oJKKy8mv0hVQBHLqiD-X-21" target="oJKKy8mv0hVQBHLqiD-X-17">
          <mxGeometry width="50" height="50" relative="1" as="geometry">
            <mxPoint x="885" y="510" as="sourcePoint" />
            <mxPoint x="780" y="260" as="targetPoint" />
          </mxGeometry>
        </mxCell>
        <mxCell id="oJKKy8mv0hVQBHLqiD-X-43" value="" style="endArrow=classic;html=1;rounded=0;entryX=0.25;entryY=0.1;entryDx=0;entryDy=0;exitX=1;exitY=0.5;exitDx=0;exitDy=0;entryPerimeter=0;" edge="1" parent="1" source="oJKKy8mv0hVQBHLqiD-X-4" target="oJKKy8mv0hVQBHLqiD-X-17">
          <mxGeometry width="50" height="50" relative="1" as="geometry">
            <mxPoint x="895" y="520" as="sourcePoint" />
            <mxPoint x="790" y="270" as="targetPoint" />
          </mxGeometry>
        </mxCell>
        <mxCell id="oJKKy8mv0hVQBHLqiD-X-44" value="" style="endArrow=classic;html=1;rounded=0;exitX=1;exitY=0.5;exitDx=0;exitDy=0;" edge="1" parent="1" source="oJKKy8mv0hVQBHLqiD-X-5">
          <mxGeometry width="50" height="50" relative="1" as="geometry">
            <mxPoint x="250" y="310" as="sourcePoint" />
            <mxPoint x="398" y="400" as="targetPoint" />
          </mxGeometry>
        </mxCell>
        <mxCell id="oJKKy8mv0hVQBHLqiD-X-45" value="" style="endArrow=classic;html=1;rounded=0;exitX=1;exitY=0.5;exitDx=0;exitDy=0;" edge="1" parent="1" source="oJKKy8mv0hVQBHLqiD-X-6">
          <mxGeometry width="50" height="50" relative="1" as="geometry">
            <mxPoint x="260" y="330" as="sourcePoint" />
            <mxPoint x="400" y="400" as="targetPoint" />
          </mxGeometry>
        </mxCell>
        <mxCell id="oJKKy8mv0hVQBHLqiD-X-46" value="" style="endArrow=classic;html=1;rounded=0;exitX=1;exitY=0.5;exitDx=0;exitDy=0;" edge="1" parent="1" source="oJKKy8mv0hVQBHLqiD-X-7">
          <mxGeometry width="50" height="50" relative="1" as="geometry">
            <mxPoint x="270" y="340" as="sourcePoint" />
            <mxPoint x="390" y="400" as="targetPoint" />
          </mxGeometry>
        </mxCell>
        <mxCell id="oJKKy8mv0hVQBHLqiD-X-47" value="" style="endArrow=classic;html=1;rounded=0;exitX=1;exitY=0;exitDx=0;exitDy=0;entryX=0;entryY=0.3333333333333333;entryDx=0;entryDy=0;entryPerimeter=0;" edge="1" parent="1" source="oJKKy8mv0hVQBHLqiD-X-8" target="oJKKy8mv0hVQBHLqiD-X-17">
          <mxGeometry width="50" height="50" relative="1" as="geometry">
            <mxPoint x="280" y="350" as="sourcePoint" />
            <mxPoint x="428" y="430" as="targetPoint" />
          </mxGeometry>
        </mxCell>
        <mxCell id="oJKKy8mv0hVQBHLqiD-X-48" value="" style="endArrow=classic;html=1;rounded=0;exitX=1;exitY=0;exitDx=0;exitDy=0;" edge="1" parent="1" source="oJKKy8mv0hVQBHLqiD-X-9">
          <mxGeometry width="50" height="50" relative="1" as="geometry">
            <mxPoint x="290" y="360" as="sourcePoint" />
            <mxPoint x="390" y="410" as="targetPoint" />
          </mxGeometry>
        </mxCell>
        <mxCell id="oJKKy8mv0hVQBHLqiD-X-49" value="" style="endArrow=classic;html=1;rounded=0;exitX=0;exitY=0.333;exitDx=0;exitDy=0;exitPerimeter=0;" edge="1" parent="1" source="oJKKy8mv0hVQBHLqiD-X-29">
          <mxGeometry width="50" height="50" relative="1" as="geometry">
            <mxPoint x="300" y="370" as="sourcePoint" />
            <mxPoint x="430" y="470" as="targetPoint" />
          </mxGeometry>
        </mxCell>
        <mxCell id="oJKKy8mv0hVQBHLqiD-X-50" value="" style="endArrow=classic;html=1;rounded=0;exitX=0.052;exitY=0.356;exitDx=0;exitDy=0;exitPerimeter=0;" edge="1" parent="1" source="oJKKy8mv0hVQBHLqiD-X-28">
          <mxGeometry width="50" height="50" relative="1" as="geometry">
            <mxPoint x="310" y="380" as="sourcePoint" />
            <mxPoint x="440" y="470" as="targetPoint" />
          </mxGeometry>
        </mxCell>
        <mxCell id="oJKKy8mv0hVQBHLqiD-X-51" value="" style="endArrow=classic;html=1;rounded=0;exitX=0;exitY=0;exitDx=0;exitDy=0;" edge="1" parent="1" source="oJKKy8mv0hVQBHLqiD-X-27">
          <mxGeometry width="50" height="50" relative="1" as="geometry">
            <mxPoint x="320" y="390" as="sourcePoint" />
            <mxPoint x="450" y="470" as="targetPoint" />
          </mxGeometry>
        </mxCell>
        <mxCell id="oJKKy8mv0hVQBHLqiD-X-52" value="" style="endArrow=classic;html=1;rounded=0;exitX=0;exitY=0;exitDx=0;exitDy=0;" edge="1" parent="1" source="oJKKy8mv0hVQBHLqiD-X-26">
          <mxGeometry width="50" height="50" relative="1" as="geometry">
            <mxPoint x="330" y="400" as="sourcePoint" />
            <mxPoint x="460" y="470" as="targetPoint" />
          </mxGeometry>
        </mxCell>
        <mxCell id="oJKKy8mv0hVQBHLqiD-X-53" value="" style="endArrow=classic;html=1;rounded=0;exitX=0;exitY=0;exitDx=0;exitDy=0;" edge="1" parent="1" source="oJKKy8mv0hVQBHLqiD-X-25">
          <mxGeometry width="50" height="50" relative="1" as="geometry">
            <mxPoint x="340" y="410" as="sourcePoint" />
            <mxPoint x="450" y="450" as="targetPoint" />
          </mxGeometry>
        </mxCell>
        <mxCell id="oJKKy8mv0hVQBHLqiD-X-54" value="" style="endArrow=classic;html=1;rounded=0;exitX=0.027;exitY=0.35;exitDx=0;exitDy=0;exitPerimeter=0;" edge="1" parent="1" source="oJKKy8mv0hVQBHLqiD-X-24">
          <mxGeometry width="50" height="50" relative="1" as="geometry">
            <mxPoint x="350" y="420" as="sourcePoint" />
            <mxPoint x="440" y="441" as="targetPoint" />
          </mxGeometry>
        </mxCell>
        <mxCell id="oJKKy8mv0hVQBHLqiD-X-55" value="" style="endArrow=classic;html=1;rounded=0;exitX=0;exitY=0.5;exitDx=0;exitDy=0;" edge="1" parent="1" source="oJKKy8mv0hVQBHLqiD-X-23">
          <mxGeometry width="50" height="50" relative="1" as="geometry">
            <mxPoint x="360" y="430" as="sourcePoint" />
            <mxPoint x="440" y="420" as="targetPoint" />
          </mxGeometry>
        </mxCell>
        <mxCell id="oJKKy8mv0hVQBHLqiD-X-56" value="" style="endArrow=classic;html=1;rounded=0;exitX=0;exitY=0.5;exitDx=0;exitDy=0;" edge="1" parent="1" source="oJKKy8mv0hVQBHLqiD-X-22">
          <mxGeometry width="50" height="50" relative="1" as="geometry">
            <mxPoint x="370" y="440" as="sourcePoint" />
            <mxPoint x="440" y="400" as="targetPoint" />
          </mxGeometry>
        </mxCell>
      </root>
    </mxGraphModel>
  </diagram>
</mxfile>
